<?xml version="1.0" encoding="UTF-8"?>
<svg width="287px" height="164px" viewBox="0 0 287 164" version="1.1" xmlns="http://www.w3.org/2000/svg" xmlns:xlink="http://www.w3.org/1999/xlink">
    <title>Miso</title>
    <defs>
        <polygon id="path-1" points="0 -2.84217094e-14 95.635416 -2.84217094e-14 95.635416 81.359376 0 81.359376"></polygon>
        <polygon id="path-3" points="0 0 143.557292 0 143.557292 162.171876 0 162.171876"></polygon>
        <polygon id="path-5" points="-2.84217094e-14 0 143.026041 0 143.026041 162.171876 -2.84217094e-14 162.171876"></polygon>
    </defs>
    <g id="Page-1" stroke="none" stroke-width="1" fill="none" fill-rule="evenodd">
        <g id="Miso" transform="translate(0.697917, 0.942708)">
            <g id="Clipped" transform="translate(0.000000, 80.812500)">
                <mask id="mask-2" fill="white">
                    <use xlink:href="#path-1"></use>
                </mask>
                <g id="Path"></g>
                <polyline id="Path" fill="#86C7ED" fill-rule="nonzero" mask="url(#mask-2)" points="71.4270827 0.0885413333 23.8385413 0.0885413333 0 41.375 23.8385413 82.5781253 71.4270827 82.5781253 95.260416 41.375 71.4270827 0.0885413333"></polyline>
            </g>
            <g id="Clipped" transform="translate(46.968749, -0.000000)">
                <mask id="mask-4" fill="white">
                    <use xlink:href="#path-3"></use>
                </mask>
                <g id="Path"></g>
                <polyline id="Path" fill="#A066CB" fill-rule="nonzero" mask="url(#mask-4)" points="128.484375 96.1458333 128.489584 96.1406253 126.885416 93.3593747 119.718749 80.9010413 119.6875 80.9010413 87.6406253 25.432292 87.630208 25.442708 72.0416667 -1.5 24.4583333 -1.5 0.619792 39.7031253 16.6614587 67.432292 16.6562507 67.432292 55.932292 135.442708 72.0416667 163.390625 119.718749 163.390625 143.468749 122.1875 128.484375 96.1458333"></polyline>
            </g>
            <g id="Clipped" transform="translate(142.671875, -0.000000)">
                <mask id="mask-6" fill="white">
                    <use xlink:href="#path-5"></use>
                </mask>
                <g id="Path"></g>
                <polyline id="Path" fill="#1836B2" fill-rule="nonzero" mask="url(#mask-6)" points="126.833333 94.1406253 126.901041 94.1041667 86.135416 23.3958333 86.0416667 23.4531253 71.6041667 -1.5 24.015624 -1.5 0.177082667 39.7031253 24.015624 80.9010413 24.0312493 80.9010413 47.8385413 122.067708 47.765624 122.1875 71.6041667 163.390625 119.192708 163.390625 143.026041 122.1875 126.833333 94.1406253"></polyline>
            </g>
        </g>
    </g>
</svg>